<svg width="24" height="24" viewBox="0 0 24 24" fill="none" xmlns="http://www.w3.org/2000/svg">
<g clip-path="url(#clip0_569_7472)">
<path d="M12 0C8.8174 0 5.76515 1.26428 3.51472 3.51472C1.26428 5.76516 0 8.8174 0 12C0 15.1826 1.26428 18.2348 3.51472 20.4853C5.76515 22.7357 8.8174 24 12 24C15.1826 24 18.2348 22.7357 20.4853 20.4853C22.7357 18.2348 24 15.1826 24 12H21C21 16.98 16.98 21 12 21C9.61305 21 7.32387 20.0518 5.63604 18.364C3.94821 16.6761 3 14.3869 3 12C3 9.61305 3.94821 7.32387 5.63604 5.63604C7.32387 3.94821 9.61305 3 12 3C12.645 3 13.29 3.075 13.905 3.21L16.32 0.81C14.94 0.27 13.5 0 12 0ZM21.885 2.37L12 12.255L8.43 8.685L6.315 10.815L12 16.5L24 4.5" fill="#0A0A0A"/>
</g>
<defs>
<clipPath id="clip0_569_7472">
<rect width="24" height="24" fill="white"/>
</clipPath>
</defs>
</svg>
