<svg width="18" height="24" viewBox="0 0 18 24" fill="none" xmlns="http://www.w3.org/2000/svg">
<path d="M8.9981 5.4C9.77751 5.4 10.525 5.71607 11.0761 6.27868C11.6273 6.84129 11.9369 7.60435 11.9369 8.4C11.9369 8.79397 11.8609 9.18407 11.7132 9.54805C11.5655 9.91203 11.349 10.2427 11.0761 10.5213C10.8032 10.7999 10.4793 11.0209 10.1227 11.1716C9.76618 11.3224 9.38403 11.4 8.9981 11.4C8.21869 11.4 7.4712 11.0839 6.92007 10.5213C6.36895 9.95871 6.05933 9.19565 6.05933 8.4C6.05933 7.60435 6.36895 6.84129 6.92007 6.27868C7.4712 5.71607 8.21869 5.4 8.9981 5.4ZM8.9981 0C11.1805 0 13.2734 0.884997 14.8166 2.4603C16.3597 4.03561 17.2267 6.17218 17.2267 8.4C17.2267 14.7 8.9981 24 8.9981 24C8.9981 24 0.769531 14.7 0.769531 8.4C0.769531 6.17218 1.63647 4.03561 3.17962 2.4603C4.72278 0.884997 6.81575 0 8.9981 0ZM8.9981 2.4C7.43928 2.4 5.9443 3.03214 4.84205 4.15736C3.73979 5.28258 3.12055 6.8087 3.12055 8.4C3.12055 9.6 3.12055 12 8.9981 20.052C14.8757 12 14.8757 9.6 14.8757 8.4C14.8757 6.8087 14.2564 5.28258 13.1542 4.15736C12.0519 3.03214 10.5569 2.4 8.9981 2.4Z" fill="black"/>
</svg>
