<svg width="26" height="27" viewBox="0 0 26 27" fill="none" xmlns="http://www.w3.org/2000/svg">
<path d="M12.8325 23.833C7.19747 23.833 2.61024 19.1959 2.61024 13.4997C2.61024 7.80343 7.19747 3.16634 12.8325 3.16634C18.4675 3.16634 23.0547 7.80343 23.0547 13.4997C23.0547 19.1959 18.4675 23.833 12.8325 23.833ZM12.8325 0.583008C11.1545 0.583008 9.49289 0.917107 7.94262 1.56623C6.39235 2.21535 4.98374 3.16679 3.79721 4.36621C1.40091 6.78856 0.0546875 10.074 0.0546875 13.4997C0.0546875 16.9254 1.40091 20.2108 3.79721 22.6331C4.98374 23.8326 6.39235 24.784 7.94262 25.4331C9.49289 26.0822 11.1545 26.4163 12.8325 26.4163C16.2213 26.4163 19.4714 25.0555 21.8677 22.6331C24.264 20.2108 25.6102 16.9254 25.6102 13.4997C25.6102 11.8034 25.2797 10.1238 24.6376 8.55668C23.9955 6.98956 23.0542 5.56564 21.8677 4.36621C20.6812 3.16679 19.2726 2.21535 17.7223 1.56623C16.172 0.917107 14.5105 0.583008 12.8325 0.583008ZM6.44358 14.7913H19.2214V12.208H6.44358" fill="#000000"/>
</svg>
