<svg width="318" height="321" viewBox="0 0 318 321" fill="none" xmlns="http://www.w3.org/2000/svg">
<path d="M207.09 215.572L206.35 205.542L143.8 208.612V218.292C143.8 218.292 129.73 231.672 124.18 320.722H236.77C236.77 320.722 249.12 241.922 207.09 215.572Z" fill="#BE316C"/>
<path d="M143.809 218.302L207.089 215.572" stroke="black" stroke-width="1.55" stroke-miterlimit="10"/>
<path d="M156.738 259.353L169.698 264.633L176.638 320.723" stroke="black" stroke-width="1.55" stroke-miterlimit="10"/>
<path d="M75.4275 196.182L92.7075 139.142L130.718 153.392L112.478 208.022C108.738 219.302 95.8475 224.632 85.2375 219.262C76.7775 214.992 72.6375 205.242 75.4275 196.182Z" fill="#F26E5A"/>
<path d="M102.079 108.672C105.499 97.5519 117.439 91.4619 128.449 95.2219C139.149 98.8819 144.919 110.472 141.359 121.212L130.709 153.372L92.6992 139.122L102.079 108.662V108.672Z" fill="#FEFEF4"/>
<path d="M104.768 191.902L61.3581 109.592C61.3581 109.592 62.3481 94.7218 37.6481 93.8318V93.8518C37.3181 93.8318 36.9881 93.8018 36.6481 93.8018H28.3881C26.8581 93.8018 25.4581 94.8818 25.2481 96.4018C25.0081 98.1618 26.2381 99.6718 27.8881 99.8818L36.2181 101.062L24.8881 104.082L22.7681 104.862L7.33815 94.6618C6.10815 93.7818 4.38815 94.1918 3.67815 95.5218C3.11815 96.5718 3.36815 97.8618 4.27815 98.6218C5.22815 99.4118 6.75815 100.732 8.43815 102.172L5.02815 100.132C3.72815 99.3518 2.04815 99.8918 1.44815 101.282C0.978149 102.372 1.32815 103.632 2.29815 104.322C3.12815 104.912 4.19815 105.662 5.33815 106.462L4.15815 106.002C2.85815 105.492 1.32815 105.862 0.528149 107.012C-0.551851 108.572 0.0981487 110.692 1.80815 111.402L18.6681 118.462C21.5781 119.682 24.3581 120.442 27.7881 119.632L42.8181 116.092L76.4482 210.232L104.768 191.912V191.902Z" fill="#F26E5A"/>
<path d="M86.957 158.122L94.987 173.352" stroke="#DB5749" stroke-width="1.5" stroke-miterlimit="10"/>
<path d="M135.877 94.3212L119.737 95.5312C119.737 95.5312 96.3766 127.221 143.807 208.621L206.357 205.551L211.067 117.851L203.347 92.9512H175.327L135.887 94.3212H135.877Z" fill="#FEFEF4"/>
<path d="M117.557 148.451C117.557 148.451 112.907 138.661 115.897 116.981" stroke="#FCE7E4" stroke-width="1.55" stroke-miterlimit="10"/>
<path d="M262.747 184.722L236.777 131.082L201.457 151.092L227.997 202.202C233.447 212.762 247.017 216.012 256.657 209.052C264.337 203.512 266.917 193.232 262.747 184.722Z" fill="#F26E5A"/>
<path d="M222.747 102.462C217.627 92.0118 204.887 87.8618 194.597 93.3018C184.597 98.5818 180.717 110.942 185.907 120.992L201.447 151.102L236.767 131.092L222.747 102.472V102.462Z" fill="#FEFEF4"/>
<path d="M201.457 151.091L188.617 126.231" stroke="#FCE7E4" stroke-width="1.55" stroke-miterlimit="10"/>
<path d="M316.968 92.9514C316.178 91.8014 314.638 91.4414 313.338 91.9414L305.798 94.8814L312.888 88.8814C314.058 87.8914 314.388 86.1314 313.508 84.8814C312.488 83.4414 310.538 83.2214 309.248 84.2714L302.658 89.5814L308.278 82.2314C309.208 81.0114 309.158 79.2214 308.018 78.1914C306.718 77.0014 304.768 77.2114 303.718 78.5014L292.618 90.0214L281.288 87.0014L289.618 85.8214C291.268 85.6114 292.508 84.1014 292.258 82.3414C292.048 80.8214 290.648 79.7414 289.118 79.7414H280.858C275.978 79.7414 271.218 81.4414 267.608 84.6814C267.548 84.7314 267.488 84.7614 267.428 84.8114C262.358 88.8114 264.208 97.0014 264.208 97.0014L233.098 185.081L263.928 198.761L281.698 104.171L293.048 104.191C293.748 104.261 294.458 104.251 295.168 104.191H295.258C296.478 104.081 297.688 103.791 298.838 103.311L315.698 97.3414C317.408 96.6214 318.058 94.5114 316.978 92.9514H316.968Z" fill="#F26E5A"/>
<path d="M245.177 148.451L238.457 171.911" stroke="#DB5749" stroke-width="1.5" stroke-miterlimit="10"/>
<path d="M134.618 21.662C132.678 22.992 119.638 26.382 119.378 28.752C119.378 28.752 123.668 45.522 119.278 48.652C107.398 57.112 103.598 73.702 103.598 73.702C103.598 73.702 134.938 97.172 218.238 72.532C218.238 72.532 219.238 62.552 204.088 55.312C199.768 53.242 195.918 50.132 193.488 45.892C191.608 42.612 191.318 41.222 190.818 38.282C189.418 30.062 166.728 -0.358027 134.628 21.672L134.618 21.662Z" fill="black"/>
<path d="M135.849 46.802C136.229 52.302 132.079 57.082 126.579 57.462C121.079 57.842 116.299 53.692 115.919 48.192C115.539 42.692 119.689 37.912 125.189 37.532C130.689 37.152 135.469 41.302 135.849 46.802Z" fill="#DB5749"/>
<path d="M140.367 71.2714L141.747 93.0014C142.217 100.631 145.337 105.831 152.847 105.311C159.257 104.861 166.877 99.7314 167.227 93.3214L163.407 59.2314L140.367 71.2814V71.2714Z" fill="#F26E5A"/>
<path d="M135.878 94.3222L175.318 92.9521C175.318 92.9521 174.358 112.342 150.918 110.532C134.618 109.272 135.878 94.3322 135.878 94.3322V94.3222Z" fill="#F26E5A"/>
<path d="M141.496 89.1715L166.706 64.5215L140.176 69.0415L141.496 89.1715Z" fill="#DB5749"/>
<path d="M146.979 74.7823C134.139 74.8223 123.539 64.7123 123.159 54.2323L122.399 29.5023C121.919 16.3623 131.949 5.21235 145.059 4.30235C158.479 3.37235 172.479 13.3323 173.409 26.7523L173.799 46.6523C174.099 62.0423 162.329 73.7123 146.969 74.7823H146.979Z" fill="#F26E5A"/>
<path d="M136.619 45.5225L135.879 51.6625L139.049 51.7825" stroke="black" stroke-width="1.24" stroke-linecap="round" stroke-linejoin="round"/>
<path d="M149.297 30.5322C149.297 30.5322 142.207 29.9522 142.137 32.8322C142.137 32.8322 142.137 34.7822 148.327 35.1722C154.517 35.5622 156.127 35.1022 156.687 33.2722C157.257 31.4322 152.627 30.5422 149.297 30.5222V30.5322Z" fill="black"/>
<path d="M128.738 34.7425C128.738 34.7425 134.108 34.3125 134.618 36.9025C134.618 36.9025 134.918 38.6625 130.218 38.9325C125.518 39.2025 124.058 38.6225 123.968 37.1325C123.868 35.3625 126.188 34.7225 128.748 34.7425H128.738Z" fill="black"/>
<path d="M131.859 43.1824C131.899 44.4324 130.919 45.4824 129.669 45.5224C128.419 45.5624 127.369 44.5824 127.329 43.3324C127.289 42.0824 128.269 41.0324 129.519 40.9924C130.769 40.9524 131.819 41.9324 131.859 43.1824Z" fill="black"/>
<path d="M150.906 42.5525C150.946 43.8025 149.966 44.8525 148.716 44.8925C147.466 44.9325 146.416 43.9525 146.376 42.7025C146.336 41.4525 147.316 40.4025 148.566 40.3625C149.816 40.3225 150.866 41.3025 150.906 42.5525Z" fill="black"/>
<path d="M136.867 57.6896C136.867 57.6896 140.217 59.2196 144.277 55.7196" stroke="black" stroke-width="1.24" stroke-linecap="round" stroke-linejoin="round"/>
<path d="M153.009 0.0418591C149.809 -0.128141 146.579 0.221859 143.489 1.05186C135.799 3.10186 121.999 8.79186 119.629 23.5619C118.839 27.4519 119.389 28.7619 119.389 28.7619C119.389 28.7619 145.169 29.7719 160.419 22.5719C162.609 31.8619 164.639 37.6119 173.819 46.6519L181.969 34.4119L191.139 42.6319C191.199 42.9419 191.189 2.07186 153.029 0.0418591H153.009Z" fill="black"/>
<path d="M187.177 46.9016C187.557 52.4016 183.407 57.1816 177.907 57.5616C172.407 57.9416 167.627 53.7916 167.247 48.2916C166.867 42.7916 171.017 38.0116 176.517 37.6316C182.017 37.2516 186.797 41.4016 187.177 46.9016Z" fill="#F26E5A"/>
<path d="M173.398 50.4512C173.398 50.4512 172.898 43.2312 179.878 43.8812" stroke="black" stroke-width="1.24" stroke-linecap="round" stroke-linejoin="round"/>
</svg>
