<svg width="26" height="27" viewBox="0 0 26 27" fill="none" xmlns="http://www.w3.org/2000/svg">
<path d="M13.1645 23.833C7.5295 23.833 2.94227 19.1959 2.94227 13.4997C2.94227 7.80343 7.5295 3.16634 13.1645 3.16634C18.7995 3.16634 23.3867 7.80343 23.3867 13.4997C23.3867 19.1959 18.7995 23.833 13.1645 23.833ZM13.1645 0.583008C11.4865 0.583008 9.82492 0.917107 8.27465 1.56623C6.72438 2.21535 5.31577 3.16679 4.12924 4.36621C1.73295 6.78856 0.386719 10.074 0.386719 13.4997C0.386719 16.9254 1.73295 20.2108 4.12924 22.6331C5.31577 23.8326 6.72438 24.784 8.27465 25.4331C9.82492 26.0822 11.4865 26.4163 13.1645 26.4163C16.5534 26.4163 19.8035 25.0555 22.1998 22.6331C24.5961 20.2108 25.9423 16.9254 25.9423 13.4997C25.9423 11.8034 25.6118 10.1238 24.9696 8.55668C24.3275 6.98956 23.3863 5.56564 22.1998 4.36621C21.0132 3.16679 19.6046 2.21535 18.0543 1.56623C16.5041 0.917107 14.8425 0.583008 13.1645 0.583008ZM14.4423 7.04134H11.8867V12.208H6.77561V14.7913H11.8867V19.958H14.4423V14.7913H19.5534V12.208H14.4423V7.04134Z" fill="#0A0A0A"/>
</svg>
