<svg width="23" height="23" viewBox="0 0 23 23" fill="none" xmlns="http://www.w3.org/2000/svg">
<path d="M16.4094 14.4403H15.3723L15.0047 14.0858C16.2912 12.5893 17.0658 10.6464 17.0658 8.53288C17.0658 3.8201 13.2456 0 8.53288 0C3.8201 0 0 3.8201 0 8.53288C0 13.2456 3.8201 17.0658 8.53288 17.0658C10.6464 17.0658 12.5893 16.2912 14.0858 15.0047L14.4403 15.3723V16.4094L21.004 22.96L22.96 21.004L16.4094 14.4403ZM8.53288 14.4403C5.26413 14.4403 2.6255 11.8016 2.6255 8.53288C2.6255 5.26413 5.26413 2.6255 8.53288 2.6255C11.8016 2.6255 14.4403 5.26413 14.4403 8.53288C14.4403 11.8016 11.8016 14.4403 8.53288 14.4403Z" fill="white"/>
</svg>
