<svg width="60" height="60" viewBox="0 0 60 60" fill="none" xmlns="http://www.w3.org/2000/svg">
<rect x="0.5" y="0.5" width="59" height="59" rx="7.5" fill="#BE316C" stroke="#D9D9D9"/>
<path d="M37.1527 33.0943H36.0686L35.6844 32.7238C37.0292 31.1595 37.8388 29.1286 37.8388 26.9194C37.8388 21.9931 33.8456 18 28.9194 18C23.9931 18 20 21.9931 20 26.9194C20 31.8456 23.9931 35.8388 28.9194 35.8388C31.1286 35.8388 33.1595 35.0292 34.7238 33.6844L35.0943 34.0686V35.1527L41.9554 42L44 39.9554L37.1527 33.0943ZM28.9194 33.0943C25.5026 33.0943 22.7444 30.3362 22.7444 26.9194C22.7444 23.5026 25.5026 20.7444 28.9194 20.7444C32.3362 20.7444 35.0943 23.5026 35.0943 26.9194C35.0943 30.3362 32.3362 33.0943 28.9194 33.0943Z" fill="white"/>
</svg>
