<svg width="60" height="60" viewBox="0 0 60 60" fill="none" xmlns="http://www.w3.org/2000/svg">
<rect x="0.5" y="0.5" width="59" height="59" rx="7.5" fill="#BE316C" stroke="#D9D9D9"/>
<path d="M30 16C24.4714 16 20 20.4714 20 26C20 31.7156 25.8076 39.5053 28.5712 42.8885C29.3207 43.8061 30.6793 43.8061 31.4288 42.8885C34.1924 39.5053 40 31.7156 40 26C40 20.4714 35.5286 16 30 16ZM30 29.5714C28.0286 29.5714 26.4286 27.9714 26.4286 26C26.4286 24.0286 28.0286 22.4286 30 22.4286C31.9714 22.4286 33.5714 24.0286 33.5714 26C33.5714 27.9714 31.9714 29.5714 30 29.5714Z" fill="white"/>
</svg>
