<svg width="20" height="22" viewBox="0 0 20 22" fill="none" xmlns="http://www.w3.org/2000/svg">
<path d="M16.25 15.2533C15.4267 15.2533 14.69 15.5783 14.1267 16.0875L6.4025 11.5917C6.45667 11.3425 6.5 11.0933 6.5 10.8333C6.5 10.5733 6.45667 10.3242 6.4025 10.075L14.04 5.6225C14.625 6.16417 15.3942 6.5 16.25 6.5C18.0483 6.5 19.5 5.04833 19.5 3.25C19.5 1.45167 18.0483 0 16.25 0C14.4517 0 13 1.45167 13 3.25C13 3.51 13.0433 3.75917 13.0975 4.00833L5.46 8.46083C4.875 7.91917 4.10583 7.58333 3.25 7.58333C1.45167 7.58333 0 9.035 0 10.8333C0 12.6317 1.45167 14.0833 3.25 14.0833C4.10583 14.0833 4.875 13.7475 5.46 13.2058L13.1733 17.7125C13.1192 17.94 13.0867 18.1783 13.0867 18.4167C13.0867 20.1608 14.5058 21.58 16.25 21.58C17.9942 21.58 19.4133 20.1608 19.4133 18.4167C19.4133 16.6725 17.9942 15.2533 16.25 15.2533Z" fill="white"/>
</svg>
