<svg width="354" height="81" viewBox="0 0 354 81" fill="none" xmlns="http://www.w3.org/2000/svg">
<g clip-path="url(#clip0_664_8721)">
<path d="M177 0C166.391 0 156.217 4.21427 148.716 11.7157C141.214 19.2172 137 29.3913 137 40C137 50.6087 141.214 60.7828 148.716 68.2843C156.217 75.7857 166.391 80 177 80C187.609 80 197.783 75.7857 205.284 68.2843C212.786 60.7828 217 50.6087 217 40H207C207 56.6 193.6 70 177 70C169.044 70 161.413 66.8393 155.787 61.2132C150.161 55.5871 147 47.9565 147 40C147 32.0435 150.161 24.4129 155.787 18.7868C161.413 13.1607 169.044 10 177 10C179.15 10 181.3 10.25 183.35 10.7L191.4 2.7C186.8 0.9 182 0 177 0ZM209.95 7.9L177 40.85L165.1 28.95L158.05 36.05L177 55L217 15" fill="#BE316C"/>
</g>
<defs>
<clipPath id="clip0_664_8721">
<rect width="353.333" height="80" fill="white" transform="translate(0.332031 0.5)"/>
</clipPath>
</defs>
</svg>
